<svg width="36" height="38" viewBox="0 0 36 38" fill="none" xmlns="http://www.w3.org/2000/svg">
<g filter="url(#filter0_d_65_244)">
<path d="M29.7909 10.7628C29.7074 10.663 29.6031 10.5827 29.4852 10.5276C29.3673 10.4725 29.2388 10.444 29.1087 10.444H11.1861L10.6428 7.45985C10.5684 7.05026 10.3526 6.67979 10.0331 6.413C9.7135 6.14622 9.31043 6.00006 8.89414 6H6.8888C6.65307 6 6.427 6.09364 6.26032 6.26032C6.09364 6.427 6 6.65307 6 6.8888C6 7.12452 6.09364 7.35059 6.26032 7.51727C6.427 7.68395 6.65307 7.77759 6.8888 7.77759H8.88859L11.7283 23.3637C11.8119 23.826 12.0162 24.2579 12.3205 24.6158C11.9005 25.008 11.5975 25.5089 11.4448 26.0628C11.2922 26.6167 11.2959 27.2021 11.4557 27.754C11.6154 28.306 11.9249 28.8029 12.3498 29.1897C12.7747 29.5764 13.2984 29.838 13.8629 29.9453C14.4274 30.0526 15.0105 30.0014 15.5477 29.7975C16.0849 29.5937 16.5551 29.245 16.9062 28.7901C17.2574 28.3353 17.4756 27.7922 17.5369 27.2208C17.5982 26.6495 17.5 26.0724 17.2533 25.5535H22.2994C22.1006 25.9698 21.9977 26.4254 21.9983 26.8867C21.9983 27.502 22.1808 28.1034 22.5226 28.615C22.8644 29.1265 23.3502 29.5253 23.9187 29.7607C24.4871 29.9962 25.1126 30.0578 25.716 29.9377C26.3194 29.8177 26.8737 29.5214 27.3088 29.0864C27.7438 28.6513 28.0401 28.097 28.1601 27.4936C28.2802 26.8902 28.2186 26.2647 27.9831 25.6963C27.7477 25.1278 27.3489 24.642 26.8374 24.3002C26.3258 23.9584 25.7244 23.7759 25.1091 23.7759H14.3514C14.1432 23.7759 13.9417 23.7028 13.7819 23.5694C13.6221 23.436 13.5142 23.2508 13.477 23.046L13.1248 21.1095H26.0124C26.6368 21.1094 27.2414 20.8902 27.7207 20.49C28.2001 20.0899 28.5238 19.5341 28.6354 18.9198L29.9864 11.4917C30.0093 11.3633 30.0036 11.2314 29.9698 11.1055C29.936 10.9795 29.8749 10.8625 29.7909 10.7628ZM25.1091 25.5535C25.3728 25.5535 25.6306 25.6317 25.8498 25.7782C26.069 25.9247 26.2399 26.1329 26.3408 26.3765C26.4417 26.6201 26.4681 26.8882 26.4167 27.1468C26.3653 27.4054 26.2383 27.643 26.0518 27.8294C25.8654 28.0159 25.6278 28.1428 25.3692 28.1943C25.1106 28.2457 24.8425 28.2193 24.5989 28.1184C24.3553 28.0175 24.1471 27.8466 24.0006 27.6274C23.8541 27.4082 23.7759 27.1504 23.7759 26.8867C23.7759 26.5331 23.9164 26.194 24.1664 25.944C24.4164 25.694 24.7555 25.5535 25.1091 25.5535ZM14.4436 25.5535C14.7072 25.5535 14.965 25.6317 15.1842 25.7782C15.4035 25.9247 15.5744 26.1329 15.6753 26.3765C15.7762 26.6201 15.8026 26.8882 15.7511 27.1468C15.6997 27.4054 15.5727 27.643 15.3863 27.8294C15.1998 28.0159 14.9623 28.1428 14.7037 28.1943C14.445 28.2457 14.177 28.2193 13.9334 28.1184C13.6898 28.0175 13.4815 27.8466 13.3351 27.6274C13.1886 27.4082 13.1104 27.1504 13.1104 26.8867C13.1104 26.5331 13.2508 26.194 13.5009 25.944C13.7509 25.694 14.09 25.5535 14.4436 25.5535Z" fill="white"/>
</g>
<defs>
<filter id="filter0_d_65_244" x="-4" y="0" width="44" height="44" filterUnits="userSpaceOnUse" color-interpolation-filters="sRGB">
<feFlood flood-opacity="0" result="BackgroundImageFix"/>
<feColorMatrix in="SourceAlpha" type="matrix" values="0 0 0 0 0 0 0 0 0 0 0 0 0 0 0 0 0 0 127 0" result="hardAlpha"/>
<feOffset dy="4"/>
<feGaussianBlur stdDeviation="2"/>
<feComposite in2="hardAlpha" operator="out"/>
<feColorMatrix type="matrix" values="0 0 0 0 0 0 0 0 0 0 0 0 0 0 0 0 0 0 0.25 0"/>
<feBlend mode="normal" in2="BackgroundImageFix" result="effect1_dropShadow_65_244"/>
<feBlend mode="normal" in="SourceGraphic" in2="effect1_dropShadow_65_244" result="shape"/>
</filter>
</defs>
</svg>
