<svg width="46" height="44" viewBox="0 0 46 44" fill="none" xmlns="http://www.w3.org/2000/svg">
<path d="M7.09099 22.0897C8.04708 21.8108 8.98325 21.5519 9.93934 21.3128C12.2698 20.7153 14.6003 20.1376 16.9307 19.56C17.3092 19.4604 17.6876 19.4007 18.1259 19.321C17.5881 22.01 17.6677 24.6791 17.6279 27.3481C17.6279 27.6868 17.7076 28.0453 17.847 28.3441C18.2055 29.1209 18.6039 29.8579 19.0023 30.6148C19.062 30.7144 19.1417 30.7741 19.2811 30.9136C19.6197 30.1367 19.9584 29.4595 20.2173 28.7424C20.4962 28.0055 20.7153 27.2685 20.9344 26.5315C21.2531 25.416 21.512 24.2807 21.8506 23.1653C22.3087 21.6514 22.7868 20.1376 23.3047 18.6438C23.5039 18.106 23.8624 17.6279 24.1412 17.1897C24.1412 16.9108 24.1213 16.6917 24.1412 16.4726C24.1612 16.2934 24.2408 16.0942 24.2807 15.9149C24.4201 15.417 23.9819 14.4409 23.5039 14.2816C22.4083 13.9031 21.2531 13.684 20.0978 13.9031C18.7832 14.1422 17.4685 14.4808 16.1539 14.7796C16.0344 14.7995 15.895 14.8393 15.7755 14.8792C15.7555 14.8393 15.7356 14.8194 15.7157 14.7796C16.0145 14.5007 16.3332 14.2418 16.5921 13.943C17.2096 13.2259 17.8072 12.5088 18.4047 11.7719C19.2612 10.7162 20.1177 9.68042 20.9742 8.62474C21.273 8.24629 21.6116 7.90767 21.8506 7.48938C22.3685 6.59305 22.8465 5.69672 23.3047 4.78046C23.8425 3.70486 23.7628 3.58535 22.7071 3.02763C22.249 2.78861 21.8108 2.43008 21.4921 2.03171C21.1734 1.65326 20.8547 1.39432 20.3966 1.43415C19.8189 1.47399 19.2015 1.53375 18.6637 1.71301C16.1938 2.56951 13.6641 3.18698 11.1345 3.7447C9.60073 4.08332 8.04708 4.34226 6.49344 4.66095C4.74061 4.97965 2.94794 4.97965 1.17519 4.86014C0.796741 4.84022 0.418289 4.86014 0 4.86014C0.039837 5.31826 0.13943 5.73655 0.458126 6.07517C0.717067 6.35403 0.956089 6.67272 1.15527 6.99142C1.9321 8.20645 2.70892 9.40156 3.46582 10.6365C4.3024 12.0308 5.29833 12.0906 6.33409 11.8316C6.71254 11.732 7.09099 11.5926 7.46944 11.4731C9.74016 10.756 11.9909 10.039 14.2617 9.3418C14.66 9.22229 15.0982 9.16254 15.5763 9.06294C15.158 9.72026 14.8194 10.3377 14.4011 10.8954C13.7637 11.7918 13.8434 12.6483 14.3812 13.5446C14.6799 14.0227 14.8991 14.5206 15.1978 15.0783C14.6401 15.2178 14.0824 15.3771 13.5247 15.5165C12.4889 15.7356 11.4332 15.9548 10.3775 16.1539C9.08284 16.4129 7.80806 16.7117 6.49344 16.871C5.27841 17.0104 4.06338 16.9905 2.82843 17.0702C2.25079 17.11 1.67316 17.2096 1.01584 17.3092C1.21503 17.6279 1.31462 17.8868 1.47397 18.0661C2.41014 19.1218 3.40607 20.1376 4.28248 21.2332C5.0593 22.1494 5.95564 22.4084 7.09099 22.0897Z" fill="white"/>
<path d="M44.9163 18.345C44.5976 17.4486 44.2589 16.5722 43.8606 15.7157C43.502 14.919 43.4821 14.9987 42.6256 15.0584C40.5541 15.2377 38.4627 15.3373 36.3911 15.4767C36.3513 15.4767 36.2915 15.4568 36.172 15.4369C36.3712 15.2775 36.5106 15.158 36.6501 15.0385C38.3431 13.5446 39.7175 11.7519 41.1915 10.0589C41.7094 9.46131 42.1277 8.72432 42.9045 8.38571C43.3825 8.16661 43.8407 7.90767 44.2988 7.66864C44.8565 7.36987 44.8963 7.21052 44.5776 6.67272C44.0996 5.85606 43.6415 5.01948 43.1634 4.20282C43.1037 4.08331 42.9842 4.00364 42.9045 3.88413C42.8049 3.76461 42.7053 3.62518 42.6455 3.48575C42.5061 3.00771 42.3866 2.94795 41.9086 3.04755C40.7334 3.28657 39.5781 3.52559 38.383 3.70486C37.1281 3.88413 35.8732 3.98372 34.6184 4.12315C34.2798 4.16298 33.9611 4.24266 33.5627 4.30241C33.5627 4.10323 33.5826 3.9638 33.5627 3.84429C33.5029 3.34633 33.5229 2.80853 33.3237 2.37032C33.0448 1.73293 32.5867 1.17521 32.2282 0.59757C31.9493 0.159362 31.6107 -0.0597413 31.033 0.0796883C30.4554 0.219118 29.9774 0.796755 30.077 1.37439C30.1367 1.79268 30.1965 2.21097 30.2761 2.62926C30.2363 2.62926 30.1965 2.64918 30.1566 2.64918C30.1367 2.54958 30.1168 2.43007 30.0969 2.39024C29.9774 2.64918 29.7981 2.94795 29.6985 3.28657C29.5591 3.72478 29.4993 4.20282 29.3599 4.64103C29.3201 4.78046 29.1607 4.91989 29.0213 4.95973C28.2245 5.13899 27.4079 5.23858 26.6111 5.43777C25.9538 5.59712 25.3164 5.83614 24.6591 6.05524C24.9778 6.77231 25.1969 7.4097 25.5355 7.96742C26.2526 9.14261 26.7705 9.76009 28.3042 9.46131C30.9135 8.94343 33.5428 8.84384 36.1919 8.72432C36.3115 8.72432 36.4509 8.74424 36.6301 8.76416C36.3712 9.16253 36.2119 9.50115 35.9728 9.79992C34.8176 11.1544 33.6623 12.5088 32.4672 13.8434C31.9493 14.421 31.3717 14.9588 30.8139 15.4966C30.7343 15.5763 30.5749 15.656 30.4554 15.656C28.8022 15.6958 27.1689 15.7157 25.5156 15.7356C25.3563 15.7356 25.2168 15.7356 25.0973 15.7356C25.2965 16.2934 25.4957 16.8112 25.6949 17.3291C25.7148 17.369 25.7546 17.4088 25.7945 17.4486C26.0933 17.8072 26.4518 18.1458 26.2526 18.6836C26.2327 18.7433 26.2327 18.823 26.2526 18.8828C26.4319 19.5202 26.5713 20.1974 26.8103 20.8149C27.0693 21.4921 27.4278 22.1494 27.7863 22.7868C28.5631 24.1612 29.3201 25.5754 30.1965 26.89C30.9135 27.9656 31.6505 29.0611 32.6664 29.8977C33.0647 30.2164 33.483 30.4953 33.8416 30.8538C34.3993 31.3916 34.3993 31.4115 35.0167 30.9136C35.0964 30.8538 35.1761 30.7741 35.2757 30.6945C35.8732 30.1965 36.431 29.6388 37.0684 29.2006C38.5423 28.1648 39.7972 26.9298 40.7732 25.416C41.3309 24.5595 41.8488 23.6831 42.3268 22.8067C42.7651 22.0299 43.2033 21.2332 43.4821 20.3966C43.6614 19.8787 43.8805 19.5799 44.3984 19.4405C45.0158 19.2214 45.1553 18.9624 44.9163 18.345ZM38.7216 20.2173C38.0842 21.3327 37.4667 22.4681 36.7895 23.5636C36.2915 24.4002 35.7537 25.1969 35.1761 25.9937C34.9371 26.3124 34.5785 26.5514 34.2399 26.8701C34.1403 26.8103 34.0208 26.7307 33.9212 26.6311C32.7062 25.436 31.7103 24.0815 30.8139 22.6474C30.6347 22.3486 30.4753 22.0498 30.2761 21.771C30.2164 21.6714 30.077 21.6315 29.9973 21.5519C29.9176 21.4722 29.8778 21.3527 29.818 21.2332C29.7981 21.1933 29.818 21.1336 29.7981 21.1136C29.6387 20.9344 29.4794 20.7551 29.34 20.5161C32.5469 19.8787 35.7737 19.8389 39.0801 19.6198C38.9407 19.8787 38.8212 20.038 38.7216 20.2173Z" fill="white"/>
<path d="M24.4998 38.6419C24.4201 37.5663 24.1811 36.5306 23.703 35.5546C23.6234 35.3753 23.4839 35.1761 23.3246 35.0765C23.2051 34.9968 22.9262 34.9968 22.8665 35.0765C22.4681 35.5346 22.0896 36.0127 21.7112 36.5106C21.3726 36.9289 21.0539 37.3671 20.7352 37.7854C20.6754 37.3671 20.7352 36.9688 20.6953 36.5903C20.6555 36.1919 20.5161 35.7936 20.3966 35.2956C20.1974 35.6741 20.038 35.9728 19.8787 36.2716C19.9185 35.933 20.038 35.6342 20.0779 35.2956C20.0978 35.0566 20.0779 34.6383 19.9584 34.5985C19.6397 34.479 19.5002 34.8176 19.3807 35.0566C19.0421 35.7936 18.7234 36.5704 18.3848 37.3074C17.8669 38.4029 17.3092 39.4785 16.7714 40.5541C16.7515 40.5939 16.6917 40.6338 16.632 40.7134C16.612 40.574 16.5722 40.4943 16.5722 40.4147C16.5324 40.0362 16.4925 39.6777 16.4925 39.2992C16.4925 39.2395 16.6718 39.12 16.7714 39.1001C17.0503 39.0204 17.2494 38.8809 17.2694 38.5822C17.3092 38.1041 17.11 37.9049 16.5324 37.9647C16.1539 38.0045 16.0543 37.8452 15.9547 37.5265C15.7157 36.7497 15.4369 35.9728 15.1779 35.1761C15.0783 34.8574 14.919 34.5985 14.5206 34.5985C14.1621 34.5985 13.7836 34.8972 13.6442 35.2359C13.3255 35.9728 13.0068 36.7098 12.6283 37.4269C12.3893 37.8651 12.0308 38.2436 11.732 38.6618C11.5727 38.5025 11.4531 38.3431 11.3137 38.3033C10.5369 38.1041 10.2381 38.2635 9.85967 39.0204C9.60072 39.5183 9.76007 39.7574 10.3178 39.7374C10.5767 39.7374 10.8556 39.6976 11.1942 39.6777C11.0747 39.8769 11.0149 39.9964 10.9353 40.1159C10.6365 40.6338 10.2979 41.1317 10.0389 41.6695C9.91942 41.9086 9.8995 42.2472 9.97918 42.4862C10.0389 42.6854 10.2979 42.9244 10.4971 42.9642C10.6763 42.9842 10.9552 42.8049 11.0747 42.6256C11.6723 41.6895 12.2101 40.7134 12.7877 39.7773C12.8474 39.6777 12.967 39.5781 13.0665 39.5781C13.6243 39.4785 14.2019 39.4187 14.7795 39.3192C15.0584 39.2793 15.1779 39.3789 15.1978 39.6578C15.2775 40.335 15.3572 40.9923 15.4767 41.6496C15.5165 41.8488 15.636 42.1277 15.7755 42.1476C15.9547 42.1874 16.1938 42.0281 16.4925 41.9285C16.5523 42.048 16.6718 42.2472 16.7515 42.4065C16.8311 42.3468 16.9307 42.2472 17.0104 42.2472C17.349 42.287 17.5482 42.0878 17.6478 41.8289C17.9267 41.1118 18.1856 40.3948 18.4645 39.6777C18.6637 39.1399 18.8828 38.6021 19.0819 38.0643C19.1218 38.0842 19.1616 38.0842 19.2015 38.1041C19.2214 38.3431 19.2214 38.5822 19.2612 38.8212C19.301 39.0801 19.3807 39.3391 19.4604 39.5781C19.5998 39.9565 20.3966 40.1956 20.6356 39.9366C21.1734 39.3391 21.6913 38.7216 22.2291 38.124C22.4482 37.8651 22.7071 37.6261 23.0059 37.2875C23.0856 37.8452 23.1652 38.2834 23.2051 38.7216C23.2847 39.6976 23.3445 40.6537 23.4242 41.6297C23.464 42.2472 23.6632 42.4464 24.2807 42.4464C24.6193 42.4464 24.8185 42.3468 24.7786 41.9285C24.6392 40.8927 24.5795 39.7574 24.4998 38.6419ZM13.8434 37.9647C14.0027 37.5663 14.1421 37.2277 14.2816 36.8692C14.3214 36.8692 14.3613 36.8692 14.421 36.8692C14.5007 37.2277 14.5804 37.5663 14.6799 37.9647C14.3613 37.9647 14.1222 37.9647 13.8434 37.9647Z" fill="white"/>
<path d="M8.90358 37.3472C7.62879 37.2476 6.57311 37.9846 5.378 38.2236C5.41784 38.4427 5.45768 38.622 5.45768 38.7814C5.43776 39.1598 5.63694 39.3192 5.97556 39.2793C6.49344 39.2395 7.01132 39.1797 7.50928 39.0801C7.82798 39.0204 8.14668 38.881 8.48529 38.7814C8.34586 39.6578 7.90765 40.4147 7.27026 40.8728C7.17067 40.9525 7.07107 41.0322 6.9914 41.1118C6.4536 41.809 5.6967 42.048 4.86012 42.0878C4.24265 42.1078 3.7646 41.809 3.74468 41.2911C3.70485 40.6537 3.70485 39.9964 3.84428 39.3789C4.0833 38.2635 4.66093 37.2476 5.29833 36.3115C6.05523 35.2159 7.40969 34.8176 8.58488 35.3554C8.6048 35.3155 8.64464 35.2757 8.66456 35.2159C8.78407 34.5387 8.067 33.7221 7.3101 33.6822C6.27433 33.6225 5.49751 34.1403 4.78045 34.7977C4.20281 35.3155 3.84428 35.9728 3.46582 36.6501C2.64916 38.0842 2.17112 39.5582 2.3703 41.2313C2.54957 42.7252 3.9837 43.8207 5.35808 43.502C6.13491 43.3228 6.87189 43.1037 7.40969 42.4663C7.44953 42.4862 7.46945 42.5061 7.50928 42.526C7.48936 42.785 7.44953 43.0638 7.42961 43.3228C7.40969 43.6216 7.46945 43.8805 7.80806 43.9602C8.14668 44.0398 8.42553 43.8606 8.54505 43.5618C8.72431 43.0838 8.88366 42.5858 9.00317 42.0679C9.1426 41.4305 9.20236 40.7533 9.3617 40.1358C9.58081 39.3192 9.56089 38.5224 9.38162 37.7058C9.28203 37.4468 9.16252 37.3671 8.90358 37.3472Z" fill="white"/>
<path d="M30.2164 34.7778C29.6188 34.0806 28.4038 34.22 27.6071 34.8176C26.5713 35.6143 25.7347 36.5306 25.2766 37.8054C24.9579 38.7017 24.8583 39.5383 24.9579 40.4545C24.9778 40.6139 25.0774 40.7931 25.1571 40.9326C25.2567 41.1318 25.4359 41.311 25.4957 41.5102C25.7746 42.2671 26.0733 42.5061 26.89 42.5261C27.0693 42.5061 27.2884 42.5261 27.4477 42.4464C28.1847 42.1277 28.8022 41.6496 29.3201 41.0122C30.2761 39.857 30.8339 38.5423 30.9932 37.0285C31.1326 36.0725 30.7741 35.4151 30.2164 34.7778ZM28.5233 40.1757C28.1648 40.6139 27.5871 40.8728 27.0892 41.1716C26.8502 41.311 26.4717 41.0122 26.3721 40.6936C25.914 39.3192 26.412 38.2037 27.2286 37.1481C27.6071 36.6501 27.9656 36.1521 28.5632 35.8334C29.1806 35.5147 29.5392 35.6143 29.7383 36.2716C29.818 36.5107 29.818 36.7497 29.8579 36.9887C29.7981 38.2237 29.2603 39.2594 28.5233 40.1757Z" fill="white"/>
<path d="M41.6297 35.5944C41.3907 35.455 41.6496 35.8334 41.3708 35.933C40.833 36.1123 40.6935 36.5107 40.6935 36.5306C40.5939 36.7497 40.5143 36.7098 40.4943 36.7497C40.4545 36.5306 40.4147 36.5903 40.4545 36.2318L40.0362 36.5306C40.0561 37.3273 39.7972 36.7098 38.9009 37.2277C38.8809 36.4907 38.7415 35.7538 38.3431 35.1164C38.3033 35.0566 38.2635 34.9969 38.2236 34.957L37.9448 35.2558C37.8253 35.3952 37.7655 35.4948 37.646 35.6342C38.0643 35.7538 38.0842 36.0525 38.0643 36.3912C38.0444 36.7895 38.0643 37.1879 38.0643 37.6261C37.6858 37.6859 37.3273 37.7456 36.9488 37.8054C36.909 37.1082 37.0684 36.1322 37.407 35.6342L37.1082 35.3554C36.4509 34.9172 35.7737 34.7379 35.0367 34.7578C33.9013 34.7977 32.8456 35.196 31.9294 35.8534C30.9932 36.5107 30.8339 37.5066 31.8895 38.2037C32.1883 38.4029 32.4871 38.6021 32.7859 38.7814C33.1046 39.0005 33.2838 39.2196 33.1643 39.6777C33.0647 40.096 32.8257 40.3749 32.4672 40.5342C31.79 40.8529 31.0729 41.1517 30.4953 41.4106C30.4156 41.6895 30.3359 41.9086 30.2562 42.1874C31.2123 42.4265 32.1286 42.287 32.9651 41.7692C33.6424 41.3509 34.0208 40.6736 34.2798 39.9366C34.3395 39.7574 34.479 39.5383 34.4192 39.359C34.2001 38.5822 33.7818 37.9448 33.0448 37.5464C32.8656 37.4468 32.6464 37.2277 32.6265 37.0485C32.6066 36.909 32.8456 36.6899 33.0249 36.5903C33.8216 36.1521 34.6781 35.9729 35.5745 35.9131C35.8932 35.8932 36.0525 36.0326 35.9728 36.3513C35.8932 36.7098 35.7737 37.0684 35.6741 37.4269C35.455 38.1838 35.2359 38.9407 34.9968 39.6976C34.8574 40.1558 34.6781 40.6139 34.4989 41.1118C34.6781 41.1118 34.7976 41.1318 34.9371 41.1318C34.957 41.1915 34.9769 41.2314 34.9769 41.2513C35.0367 41.6696 35.3554 41.7692 35.694 41.809C36.0326 41.8289 36.0326 41.5102 36.0924 41.2911C36.2716 40.6139 36.4509 39.9366 36.6302 39.2993C37.1082 39.2594 37.5265 39.1997 37.9846 39.1598C37.9846 39.9964 37.9647 40.8529 37.9846 41.7094C38.0045 42.2273 38.144 42.3468 38.6021 42.3269C39.0403 42.307 39.1598 42.1476 39.1797 41.6696C39.2196 40.7135 39.2992 39.7574 39.3789 38.8013C39.3988 38.4627 39.6179 38.3232 39.9565 38.2237C39.9565 38.2436 39.9565 38.2635 39.9565 38.2635L39.9765 38.2037C39.9565 38.2436 39.9565 38.2834 39.9565 38.3033C39.9565 38.3631 39.9565 38.4228 39.9366 38.4627C39.598 39.3988 39.8171 40.3151 40.096 41.2114C40.3151 41.9086 40.813 42.3667 41.4903 42.4464C42.6455 42.048 41.1915 40.3948 41.1915 40.3948C40.9326 39.7175 40.8529 39.359 41.0919 38.7415C41.4903 37.7456 40.9326 38.2834 41.55 37.2476C41.6098 37.168 41.8687 36.7298 41.9683 36.6899C42.4464 36.3912 42.526 36.2716 42.7451 36.5704L43.1833 35.5944C43.2829 35.4749 41.7691 35.694 41.6297 35.5944Z" fill="white"/>
<path d="M42.9842 34.3196C42.7651 34.718 42.6057 34.718 42.287 34.4192C42.1476 34.2997 41.9086 34.2798 41.7094 34.22C41.7293 34.3993 41.7691 34.5985 41.789 34.7778C41.809 34.8375 41.8488 34.8973 41.8886 34.957C41.8488 34.957 41.809 34.957 41.7691 34.957L42.0679 35.3753C42.4065 35.4151 42.7451 35.3952 43.0638 35.196C42.9045 35.1761 42.7651 35.1363 42.5858 35.1164C43.1634 34.5786 43.1634 34.5786 42.9842 34.3196Z" fill="white"/>
</svg>
