<svg width="36" height="36" viewBox="0 0 36 36" fill="none" xmlns="http://www.w3.org/2000/svg">
<path fill-rule="evenodd" clip-rule="evenodd" d="M3.60001 6.29998C3.60001 5.58389 3.88447 4.89714 4.39082 4.39079C4.89717 3.88444 5.58392 3.59998 6.30001 3.59998H22.5C23.2161 3.59998 23.9028 3.88444 24.4092 4.39079C24.9155 4.89714 25.2 5.58389 25.2 6.29998V27.45C25.2 28.7628 25.7215 30.0218 26.6498 30.9502C27.5781 31.8785 28.8372 32.4 30.15 32.4H8.55001C7.23718 32.4 5.97813 31.8785 5.04983 30.9502C4.12152 30.0218 3.60001 28.7628 3.60001 27.45V6.29998ZM10.35 18.9C9.99196 18.9 9.64859 19.0422 9.39541 19.2954C9.14224 19.5486 9.00001 19.8919 9.00001 20.25C9.00001 20.608 9.14224 20.9514 9.39541 21.2046C9.64859 21.4577 9.99196 21.6 10.35 21.6H18.45C18.808 21.6 19.1514 21.4577 19.4046 21.2046C19.6578 20.9514 19.8 20.608 19.8 20.25C19.8 19.8919 19.6578 19.5486 19.4046 19.2954C19.1514 19.0422 18.808 18.9 18.45 18.9H10.35ZM10.35 24.3C9.99196 24.3 9.64859 24.4422 9.39541 24.6954C9.14224 24.9486 9.00001 25.2919 9.00001 25.65C9.00001 26.008 9.14224 26.3514 9.39541 26.6046C9.64859 26.8577 9.99196 27 10.35 27H18.45C18.808 27 19.1514 26.8577 19.4046 26.6046C19.6578 26.3514 19.8 26.008 19.8 25.65C19.8 25.2919 19.6578 24.9486 19.4046 24.6954C19.1514 24.4422 18.808 24.3 18.45 24.3H10.35ZM9.00001 10.35C9.00001 9.99193 9.14224 9.64856 9.39541 9.39538C9.64859 9.14221 9.99196 8.99998 10.35 8.99998H18.45C18.808 8.99998 19.1514 9.14221 19.4046 9.39538C19.6578 9.64856 19.8 9.99193 19.8 10.35V14.85C19.8 15.208 19.6578 15.5514 19.4046 15.8046C19.1514 16.0577 18.808 16.2 18.45 16.2H10.35C9.99196 16.2 9.64859 16.0577 9.39541 15.8046C9.14224 15.5514 9.00001 15.208 9.00001 14.85V10.35Z" fill="#E4E4E4"/>
<path d="M29.7 11.7H27.9V27.45C27.9 28.0467 28.137 28.619 28.559 29.0409C28.981 29.4629 29.5533 29.7 30.15 29.7C30.7467 29.7 31.319 29.4629 31.741 29.0409C32.1629 28.619 32.4 28.0467 32.4 27.45V14.4C32.4 13.6839 32.1155 12.9971 31.6092 12.4908C31.1028 11.9844 30.4161 11.7 29.7 11.7Z" fill="#E4E4E4"/>
</svg>
