<svg width="36" height="36" viewBox="0 0 36 36" fill="none" xmlns="http://www.w3.org/2000/svg">
<path d="M27.721 20.8733C29.3429 20.8733 30.6576 19.5585 30.6576 17.9366C30.6576 16.3148 29.3429 15 27.721 15C26.0991 15 24.7844 16.3148 24.7844 17.9366C24.7844 19.5585 26.0991 20.8733 27.721 20.8733Z" fill="#E4E4E4"/>
<path d="M18.0216 20.8733C19.6435 20.8733 20.9582 19.5585 20.9582 17.9366C20.9582 16.3148 19.6435 15 18.0216 15C16.3997 15 15.085 16.3148 15.085 17.9366C15.085 19.5585 16.3997 20.8733 18.0216 20.8733Z" fill="#E4E4E4"/>
<path d="M8.32226 20.8733C9.94412 20.8733 11.2589 19.5585 11.2589 17.9366C11.2589 16.3148 9.94412 15 8.32226 15C6.7004 15 5.38562 16.3148 5.38562 17.9366C5.38562 19.5585 6.7004 20.8733 8.32226 20.8733Z" fill="#E4E4E4"/>
</svg>
